<svg width="261" height="78" viewBox="0 0 261 78" fill="none" xmlns="http://www.w3.org/2000/svg">
<path d="M106.819 48.1599H95.9309L94.0601 53.473H89.6076L98.9242 27.4314H103.863L113.18 53.473H108.69L106.819 48.1599ZM105.622 44.6802L101.394 32.5948L97.1282 44.6802H105.622ZM121.496 25.7851V53.473H117.231V25.7851H121.496ZM131.362 25.7851V53.473H127.096V25.7851H131.362ZM145.904 53.8098C143.959 53.8098 142.2 53.3732 140.629 52.5002C139.057 51.6022 137.822 50.355 136.924 48.7586C136.026 47.1372 135.577 45.2664 135.577 43.1462C135.577 41.0509 136.039 39.1925 136.962 37.5712C137.885 35.9498 139.144 34.7026 140.741 33.8295C142.337 32.9565 144.121 32.52 146.091 32.52C148.062 32.52 149.845 32.9565 151.442 33.8295C153.038 34.7026 154.298 35.9498 155.221 37.5712C156.144 39.1925 156.605 41.0509 156.605 43.1462C156.605 45.2415 156.131 47.0998 155.183 48.7212C154.236 50.3425 152.939 51.6022 151.292 52.5002C149.671 53.3732 147.875 53.8098 145.904 53.8098ZM145.904 50.1056C147.002 50.1056 148.025 49.8437 148.972 49.3198C149.945 48.796 150.731 48.0103 151.33 46.9626C151.928 45.915 152.228 44.6428 152.228 43.1462C152.228 41.6495 151.941 40.3898 151.367 39.3671C150.793 38.3195 150.033 37.5337 149.085 37.0099C148.137 36.4861 147.114 36.2242 146.017 36.2242C144.919 36.2242 143.896 36.4861 142.948 37.0099C142.025 37.5337 141.29 38.3195 140.741 39.3671C140.192 40.3898 139.918 41.6495 139.918 43.1462C139.918 45.3662 140.479 47.0873 141.601 48.3096C142.749 49.5069 144.183 50.1056 145.904 50.1056ZM159.843 43.7901C159.916 43.8023 160.257 43.9119 160.866 44.119C161.487 44.3139 162.236 44.5392 163.113 44.795C163.99 45.0386 164.867 45.2578 165.744 45.4527C166.633 45.6354 167.388 45.7267 168.009 45.7267C168.545 45.7267 168.984 45.6475 169.325 45.4892C169.666 45.3309 169.836 45.0386 169.836 44.6123C169.836 44.1494 169.593 43.7292 169.105 43.3517C168.618 42.9741 167.991 42.5843 167.224 42.1824C166.468 41.7805 165.659 41.3237 164.794 40.8122C163.941 40.3006 163.131 39.6856 162.364 38.967C161.609 38.2484 160.988 37.3897 160.5 36.3909C160.013 35.38 159.77 34.1742 159.77 32.7736C159.77 31.0562 160.129 29.6068 160.848 28.4254C161.566 27.2318 162.528 26.2757 163.734 25.5571C164.952 24.8263 166.316 24.2965 167.826 23.9676C169.349 23.6388 170.908 23.4743 172.504 23.4743C173.855 23.4743 175.134 23.5474 176.34 23.6936C177.546 23.8397 178.563 23.9981 179.391 24.1686C180.232 24.3391 180.761 24.4548 180.981 24.5157V32.9014C180.981 32.9014 180.725 32.8466 180.213 32.737C179.714 32.6274 179.081 32.5056 178.313 32.3716C177.558 32.2377 176.773 32.1159 175.956 32.0062C175.153 31.8966 174.446 31.8418 173.837 31.8418C173.277 31.8418 172.857 31.9392 172.577 32.1341C172.296 32.329 172.156 32.5604 172.156 32.8284C172.156 33.0476 172.278 33.2912 172.522 33.5592C172.765 33.8149 173.058 34.0159 173.399 34.1621C174.678 34.7223 175.883 35.2948 177.016 35.8794C178.149 36.464 179.148 37.14 180.012 37.9073C180.877 38.6746 181.553 39.6125 182.04 40.7208C182.54 41.817 182.789 43.1629 182.789 44.7584C182.789 46.6585 182.308 48.3149 181.346 49.7278C180.396 51.1406 179.02 52.2368 177.217 53.0163C175.427 53.7958 173.265 54.1855 170.731 54.1855C168.551 54.1855 166.755 54.082 165.342 53.875C163.929 53.6679 162.821 53.4365 162.017 53.1807C161.213 52.9128 160.647 52.6752 160.318 52.4682C160.001 52.2611 159.843 52.1576 159.843 52.1576V43.7901ZM192.216 36.3364V47.7484C192.216 48.5216 192.391 49.0829 192.74 49.4321C193.114 49.7564 193.738 49.9185 194.611 49.9185H197.23V53.473H193.862C191.942 53.473 190.47 53.024 189.447 52.126C188.425 51.2281 187.913 49.7688 187.913 47.7484V36.3364H185.481V32.8567H187.913V27.7307H192.216V32.8567H197.23V36.3364H192.216ZM210.104 53.8098C208.158 53.8098 206.399 53.3732 204.828 52.5002C203.257 51.6022 202.022 50.355 201.124 48.7586C200.226 47.1372 199.777 45.2664 199.777 43.1462C199.777 41.0509 200.238 39.1925 201.161 37.5712C202.084 35.9498 203.344 34.7026 204.94 33.8295C206.537 32.9565 208.32 32.52 210.291 32.52C212.261 32.52 214.045 32.9565 215.641 33.8295C217.238 34.7026 218.497 35.9498 219.42 37.5712C220.343 39.1925 220.805 41.0509 220.805 43.1462C220.805 45.2415 220.331 47.0998 219.383 48.7212C218.435 50.3425 217.138 51.6022 215.492 52.5002C213.87 53.3732 212.074 53.8098 210.104 53.8098ZM210.104 50.1056C211.201 50.1056 212.224 49.8437 213.172 49.3198C214.145 48.796 214.93 48.0103 215.529 46.9626C216.128 45.915 216.427 44.6428 216.427 43.1462C216.427 41.6495 216.14 40.3898 215.566 39.3671C214.993 38.3195 214.232 37.5337 213.284 37.0099C212.336 36.4861 211.313 36.2242 210.216 36.2242C209.118 36.2242 208.096 36.4861 207.148 37.0099C206.225 37.5337 205.489 38.3195 204.94 39.3671C204.391 40.3898 204.117 41.6495 204.117 43.1462C204.117 45.3662 204.678 47.0873 205.801 48.3096C206.948 49.5069 208.383 50.1056 210.104 50.1056ZM229.287 35.85C229.91 34.8024 230.734 33.9917 231.756 33.418C232.804 32.8193 234.039 32.52 235.46 32.52V36.9351H234.375C232.704 36.9351 231.432 37.3591 230.559 38.2072C229.711 39.0553 229.287 40.527 229.287 42.6223V53.473H225.021V32.8567H229.287V35.85ZM258.276 42.6598C258.276 43.433 258.226 44.1315 258.127 44.7551H242.375C242.499 46.4014 243.11 47.7234 244.208 48.7212C245.305 49.7189 246.652 50.2178 248.249 50.2178C250.544 50.2178 252.165 49.2575 253.113 47.3368H257.715C257.092 49.2325 255.957 50.7915 254.31 52.0138C252.689 53.2111 250.668 53.8098 248.249 53.8098C246.278 53.8098 244.507 53.3732 242.936 52.5002C241.389 51.6022 240.167 50.355 239.269 48.7586C238.396 47.1372 237.959 45.2664 237.959 43.1462C237.959 41.0259 238.383 39.1676 239.232 37.5712C240.105 35.9498 241.314 34.7026 242.861 33.8295C244.432 32.9565 246.228 32.52 248.249 32.52C250.194 32.52 251.928 32.944 253.45 33.7921C254.971 34.6402 256.156 35.8375 257.004 37.3841C257.852 38.9057 258.276 40.6642 258.276 42.6598ZM253.824 41.3128C253.799 39.7413 253.238 38.4816 252.14 37.5337C251.043 36.5859 249.683 36.1119 248.062 36.1119C246.59 36.1119 245.33 36.5859 244.283 37.5337C243.235 38.4567 242.611 39.7164 242.412 41.3128H253.824Z" fill="white"/>
<rect opacity="0.2" width="74.8323" height="74.8323" rx="37.4161" fill="white"/>
<rect y="28" width="49.8882" height="49.8882" rx="24.9441" fill="white"/>
</svg>
