<svg width="238" height="76" viewBox="0 0 238 76" fill="none" xmlns="http://www.w3.org/2000/svg">
<g clip-path="url(#clip0_11_3)">
<path opacity="0.2" d="M70.9565 35.0769C70.9565 15.7045 55.0724 0 35.4783 0C15.8842 0 0 15.7045 0 35.0769C0 54.4494 15.8842 70.1538 35.4783 70.1538C55.0724 70.1538 70.9565 54.4494 70.9565 35.0769Z" fill="#FA7275"/>
<path d="M47.3043 52.6154C47.3043 39.7004 36.7149 29.2308 23.6522 29.2308C10.5894 29.2308 0 39.7004 0 52.6154C0 65.5304 10.5894 76 23.6522 76C36.7149 76 47.3043 65.5304 47.3043 52.6154Z" fill="#FA7275"/>
<path d="M85.0053 51.7638H74.1172L72.2464 57.0769H67.7939L77.1105 31.0353H82.0494L91.3661 57.0769H86.8761L85.0053 51.7638ZM83.808 48.2841L79.58 36.1987L75.3145 48.2841H83.808ZM99.6824 29.389V57.0769H95.4169V29.389H99.6824ZM109.548 29.389V57.0769H105.283V29.389H109.548ZM124.091 57.4137C122.145 57.4137 120.386 56.9771 118.815 56.1041C117.243 55.2061 116.009 53.9589 115.111 52.3625C114.213 50.7411 113.764 48.8703 113.764 46.7501C113.764 44.6548 114.225 42.7964 115.148 41.1751C116.071 39.5537 117.331 38.3065 118.927 37.4334C120.524 36.5604 122.307 36.1239 124.278 36.1239C126.248 36.1239 128.032 36.5604 129.628 37.4334C131.225 38.3065 132.484 39.5537 133.407 41.1751C134.33 42.7964 134.792 44.6548 134.792 46.7501C134.792 48.8454 134.318 50.7037 133.37 52.3251C132.422 53.9464 131.125 55.2061 129.478 56.1041C127.857 56.9771 126.061 57.4137 124.091 57.4137ZM124.091 53.7095C125.188 53.7095 126.211 53.4476 127.159 52.9237C128.132 52.3999 128.917 51.6142 129.516 50.5665C130.115 49.5189 130.414 48.2467 130.414 46.7501C130.414 45.2534 130.127 43.9937 129.553 42.971C128.98 41.9234 128.219 41.1376 127.271 40.6138C126.323 40.09 125.3 39.8281 124.203 39.8281C123.105 39.8281 122.083 40.09 121.135 40.6138C120.212 41.1376 119.476 41.9234 118.927 42.971C118.378 43.9937 118.104 45.2534 118.104 46.7501C118.104 48.9701 118.665 50.6912 119.788 51.9135C120.935 53.1108 122.369 53.7095 124.091 53.7095ZM138.029 47.394C138.102 47.4062 138.443 47.5158 139.052 47.7229C139.673 47.9178 140.422 48.1431 141.299 48.3989C142.176 48.6425 143.053 48.8617 143.93 49.0566C144.819 49.2393 145.574 49.3306 146.195 49.3306C146.731 49.3306 147.17 49.2514 147.511 49.0931C147.852 48.9348 148.022 48.6425 148.022 48.2162C148.022 47.7533 147.779 47.3331 147.292 46.9556C146.804 46.578 146.177 46.1882 145.41 45.7863C144.655 45.3844 143.845 44.9276 142.98 44.4161C142.127 43.9045 141.317 43.2895 140.55 42.5709C139.795 41.8522 139.174 40.9936 138.687 39.9948C138.199 38.9839 137.956 37.7781 137.956 36.3775C137.956 34.6601 138.315 33.2107 139.034 32.0293C139.752 30.8357 140.715 29.8796 141.92 29.161C143.138 28.4302 144.502 27.9004 146.013 27.5715C147.535 27.2427 149.094 27.0782 150.69 27.0782C152.042 27.0782 153.321 27.1513 154.526 27.2975C155.732 27.4436 156.749 27.602 157.577 27.7725C158.418 27.943 158.948 28.0587 159.167 28.1196V36.5053C159.167 36.5053 158.911 36.4505 158.4 36.3409C157.9 36.2313 157.267 36.1095 156.5 35.9755C155.744 35.8415 154.959 35.7198 154.143 35.6101C153.339 35.5005 152.632 35.4457 152.023 35.4457C151.463 35.4457 151.043 35.5431 150.763 35.738C150.483 35.9329 150.343 36.1643 150.343 36.4323C150.343 36.6515 150.464 36.8951 150.708 37.1631C150.952 37.4188 151.244 37.6198 151.585 37.7659C152.864 38.3262 154.07 38.8987 155.202 39.4833C156.335 40.0679 157.334 40.7439 158.199 41.5112C159.063 42.2785 159.739 43.2164 160.227 44.3247C160.726 45.4209 160.976 46.7668 160.976 48.3623C160.976 50.2624 160.494 51.9188 159.532 53.3317C158.582 54.7445 157.206 55.8407 155.403 56.6202C153.613 57.3997 151.451 57.7894 148.918 57.7894C146.737 57.7894 144.941 57.6859 143.528 57.4789C142.115 57.2718 141.007 57.0404 140.203 56.7846C139.399 56.5167 138.833 56.2791 138.504 56.0721C138.187 55.865 138.029 55.7615 138.029 55.7615V47.394ZM170.402 39.9403V51.3522C170.402 52.1255 170.577 52.6868 170.926 53.036C171.3 53.3602 171.924 53.5224 172.797 53.5224H175.416V57.0769H172.049C170.128 57.0769 168.656 56.6279 167.634 55.7299C166.611 54.832 166.1 53.3727 166.1 51.3522V39.9403H163.667V36.4606H166.1V31.3346H170.402V36.4606H175.416V39.9403H170.402ZM188.29 57.4137C186.344 57.4137 184.586 56.9771 183.014 56.1041C181.443 55.2061 180.208 53.9589 179.31 52.3625C178.412 50.7411 177.963 48.8703 177.963 46.7501C177.963 44.6548 178.425 42.7964 179.347 41.1751C180.27 39.5537 181.53 38.3065 183.127 37.4334C184.723 36.5604 186.506 36.1239 188.477 36.1239C190.448 36.1239 192.231 36.5604 193.828 37.4334C195.424 38.3065 196.684 39.5537 197.607 41.1751C198.53 42.7964 198.991 44.6548 198.991 46.7501C198.991 48.8454 198.517 50.7037 197.569 52.3251C196.621 53.9464 195.324 55.2061 193.678 56.1041C192.057 56.9771 190.261 57.4137 188.29 57.4137ZM188.29 53.7095C189.387 53.7095 190.41 53.4476 191.358 52.9237C192.331 52.3999 193.117 51.6142 193.715 50.5665C194.314 49.5189 194.613 48.2467 194.613 46.7501C194.613 45.2534 194.326 43.9937 193.753 42.971C193.179 41.9234 192.418 41.1376 191.47 40.6138C190.522 40.09 189.5 39.8281 188.402 39.8281C187.305 39.8281 186.282 40.09 185.334 40.6138C184.411 41.1376 183.675 41.9234 183.127 42.971C182.578 43.9937 182.303 45.2534 182.303 46.7501C182.303 48.9701 182.865 50.6912 183.987 51.9135C185.135 53.1108 186.569 53.7095 188.29 53.7095ZM207.473 39.4539C208.097 38.4063 208.92 37.5956 209.943 37.0219C210.99 36.4232 212.225 36.1239 213.647 36.1239V40.539H212.562C210.89 40.539 209.618 40.963 208.745 41.8111C207.897 42.6592 207.473 44.1309 207.473 46.2262V57.0769H203.208V36.4606H207.473V39.4539ZM236.463 46.2637C236.463 47.0369 236.413 47.7354 236.313 48.359H220.561C220.686 50.0053 221.297 51.3273 222.394 52.3251C223.492 53.3228 224.839 53.8217 226.435 53.8217C228.73 53.8217 230.351 52.8614 231.299 50.9407H235.901C235.278 52.8364 234.143 54.3954 232.497 55.6177C230.875 56.815 228.855 57.4137 226.435 57.4137C224.465 57.4137 222.694 56.9771 221.122 56.1041C219.576 55.2061 218.353 53.9589 217.455 52.3625C216.582 50.7411 216.146 48.8703 216.146 46.7501C216.146 44.6298 216.57 42.7715 217.418 41.1751C218.291 39.5537 219.501 38.3065 221.047 37.4334C222.619 36.5604 224.415 36.1239 226.435 36.1239C228.381 36.1239 230.114 36.5479 231.636 37.396C233.158 38.2441 234.342 39.4414 235.191 40.988C236.039 42.5096 236.463 44.2681 236.463 46.2637ZM232.01 44.9167C231.985 43.3452 231.424 42.0855 230.326 41.1376C229.229 40.1898 227.869 39.7158 226.248 39.7158C224.776 39.7158 223.517 40.1898 222.469 41.1376C221.421 42.0606 220.798 43.3202 220.598 44.9167H232.01Z" fill="#FA7275"/>
</g>
<defs>
<clipPath id="clip0_11_3">
<rect width="238" height="76" fill="white"/>
</clipPath>
</defs>
</svg>
