<svg width="83" height="82" viewBox="0 0 83 82" fill="none" xmlns="http://www.w3.org/2000/svg">
<g clip-path="url(#clip0_6_2)">
<path opacity="0.2" d="M37.4162 0H37.4161C16.7518 0 0 16.7518 0 37.4161V37.4162C0 58.0805 16.7518 74.8323 37.4161 74.8323H37.4162C58.0805 74.8323 74.8323 58.0805 74.8323 37.4162V37.4161C74.8323 16.7518 58.0805 0 37.4162 0Z" fill="white"/>
<path d="M49.8882 54.9441C49.8882 41.1679 38.7203 30 24.9441 30C11.1679 30 0 41.1679 0 54.9441C0 68.7203 11.1679 79.8882 24.9441 79.8882C38.7203 79.8882 49.8882 68.7203 49.8882 54.9441Z" fill="white"/>
<g filter="url(#filter0_d_6_2)">
<mask id="path-3-outside-1_6_2" maskUnits="userSpaceOnUse" x="84" y="36" width="112" height="21" fill="black">
<rect fill="white" x="84" y="36" width="112" height="21"/>
<path d="M97.976 52.024H91.688L90.68 55H86.384L92.48 38.152H97.232L103.328 55H98.984L97.976 52.024ZM96.92 48.856L94.832 42.688L92.768 48.856H96.92ZM109.287 37.24V55H105.183V37.24H109.287ZM116.365 37.24V55H112.261V37.24H116.365ZM125.436 55.192C124.124 55.192 122.94 54.912 121.884 54.352C120.844 53.792 120.02 52.992 119.412 51.952C118.82 50.912 118.524 49.696 118.524 48.304C118.524 46.928 118.828 45.72 119.436 44.68C120.044 43.624 120.876 42.816 121.932 42.256C122.988 41.696 124.172 41.416 125.484 41.416C126.796 41.416 127.98 41.696 129.036 42.256C130.092 42.816 130.924 43.624 131.532 44.68C132.14 45.72 132.444 46.928 132.444 48.304C132.444 49.68 132.132 50.896 131.508 51.952C130.9 52.992 130.06 53.792 128.988 54.352C127.932 54.912 126.748 55.192 125.436 55.192ZM125.436 51.64C126.22 51.64 126.884 51.352 127.428 50.776C127.988 50.2 128.268 49.376 128.268 48.304C128.268 47.232 127.996 46.408 127.452 45.832C126.924 45.256 126.268 44.968 125.484 44.968C124.684 44.968 124.02 45.256 123.492 45.832C122.964 46.392 122.7 47.216 122.7 48.304C122.7 49.376 122.956 50.2 123.468 50.776C123.996 51.352 124.652 51.64 125.436 51.64ZM146.069 42.28C145.541 42.216 144.613 42.128 143.285 42.016C142.549 41.984 141.957 41.968 141.509 41.968C140.933 41.968 140.389 41.984 139.877 42.016V38.296H140.477C141.789 38.296 143.149 38.384 144.557 38.56C145.005 38.624 145.509 38.712 146.069 38.824V42.28ZM142.109 50.128C142.109 49.792 142.085 49.552 142.037 49.408C141.989 49.248 141.909 49.144 141.797 49.096C141.685 49.032 141.493 48.984 141.221 48.952L138.269 48.592C136.525 48.4 135.349 47.832 134.741 46.888C134.469 46.488 134.285 46 134.189 45.424C134.093 44.848 134.045 44.144 134.045 43.312C134.045 41.536 134.501 40.256 135.413 39.472C136.149 38.832 137.301 38.456 138.869 38.344V43.168C138.869 43.376 138.877 43.552 138.893 43.696C138.909 43.84 138.941 43.952 138.989 44.032C139.037 44.128 139.117 44.2 139.229 44.248C139.341 44.28 139.509 44.304 139.733 44.32L143.045 44.728C143.733 44.824 144.293 44.944 144.725 45.088C145.157 45.232 145.525 45.456 145.829 45.76C146.549 46.512 146.909 47.848 146.909 49.768C146.909 51.8 146.461 53.224 145.565 54.04C145.165 54.408 144.677 54.68 144.101 54.856C143.541 55.016 142.877 55.12 142.109 55.168V50.128ZM140.837 55.192C139.237 55.192 137.749 55.12 136.373 54.976C135.557 54.896 134.941 54.816 134.525 54.736V51.232C135.469 51.312 136.549 51.392 137.765 51.472C138.533 51.504 139.077 51.52 139.397 51.52C140.261 51.52 140.829 51.496 141.101 51.448V55.192H140.837ZM152.34 43.648V51.4C152.34 52.04 152.476 52.496 152.748 52.768C153.02 53.024 153.492 53.152 154.164 53.152H155.772V55H153.804C152.588 55 151.676 54.72 151.068 54.16C150.46 53.6 150.156 52.68 150.156 51.4V43.648H148.452V41.848H150.156V38.536H152.34V41.848H155.772V43.648H152.34ZM164.154 55.216C162.922 55.216 161.802 54.936 160.794 54.376C159.802 53.816 159.018 53.024 158.442 52C157.882 50.96 157.602 49.76 157.602 48.4C157.602 47.056 157.89 45.872 158.466 44.848C159.058 43.808 159.858 43.016 160.866 42.472C161.874 41.912 163.002 41.632 164.25 41.632C165.498 41.632 166.626 41.912 167.634 42.472C168.642 43.016 169.434 43.8 170.01 44.824C170.602 45.848 170.898 47.04 170.898 48.4C170.898 49.76 170.594 50.96 169.986 52C169.394 53.024 168.586 53.816 167.562 54.376C166.538 54.936 165.402 55.216 164.154 55.216ZM164.154 53.296C164.938 53.296 165.674 53.112 166.362 52.744C167.05 52.376 167.602 51.824 168.018 51.088C168.45 50.352 168.666 49.456 168.666 48.4C168.666 47.344 168.458 46.448 168.042 45.712C167.626 44.976 167.082 44.432 166.41 44.08C165.738 43.712 165.01 43.528 164.226 43.528C163.426 43.528 162.69 43.712 162.018 44.08C161.362 44.432 160.834 44.976 160.434 45.712C160.034 46.448 159.834 47.344 159.834 48.4C159.834 49.472 160.026 50.376 160.41 51.112C160.81 51.848 161.338 52.4 161.994 52.768C162.65 53.12 163.37 53.296 164.154 53.296ZM175.954 43.984C176.338 43.232 176.882 42.648 177.586 42.232C178.306 41.816 179.178 41.608 180.202 41.608V43.864H179.626C177.178 43.864 175.954 45.192 175.954 47.848V55H173.77V41.848H175.954V43.984ZM194.723 47.92C194.723 48.336 194.699 48.776 194.651 49.24H184.139C184.219 50.536 184.659 51.552 185.459 52.288C186.275 53.008 187.259 53.368 188.411 53.368C189.355 53.368 190.139 53.152 190.763 52.72C191.403 52.272 191.851 51.68 192.107 50.944H194.459C194.107 52.208 193.403 53.24 192.347 54.04C191.291 54.824 189.979 55.216 188.411 55.216C187.163 55.216 186.043 54.936 185.051 54.376C184.075 53.816 183.307 53.024 182.747 52C182.187 50.96 181.907 49.76 181.907 48.4C181.907 47.04 182.179 45.848 182.723 44.824C183.267 43.8 184.027 43.016 185.003 42.472C185.995 41.912 187.131 41.632 188.411 41.632C189.659 41.632 190.763 41.904 191.723 42.448C192.683 42.992 193.419 43.744 193.931 44.704C194.459 45.648 194.723 46.72 194.723 47.92ZM192.467 47.464C192.467 46.632 192.283 45.92 191.915 45.328C191.547 44.72 191.043 44.264 190.403 43.96C189.779 43.64 189.083 43.48 188.315 43.48C187.211 43.48 186.267 43.832 185.483 44.536C184.715 45.24 184.275 46.216 184.163 47.464H192.467Z"/>
</mask>
<path d="M97.976 52.024L98.9231 51.7032L98.6931 51.024H97.976V52.024ZM91.688 52.024V51.024H90.9709L90.7409 51.7032L91.688 52.024ZM90.68 55V56H91.3971L91.6271 55.3208L90.68 55ZM86.384 55L85.4437 54.6598L84.9587 56H86.384V55ZM92.48 38.152V37.152H91.7784L91.5397 37.8118L92.48 38.152ZM97.232 38.152L98.1723 37.8118L97.9336 37.152H97.232V38.152ZM103.328 55V56H104.753L104.268 54.6598L103.328 55ZM98.984 55L98.0369 55.3208L98.2669 56H98.984V55ZM96.92 48.856V49.856H98.3143L97.8672 48.5354L96.92 48.856ZM94.832 42.688L95.7792 42.3674L94.8265 39.5531L93.8837 42.3707L94.832 42.688ZM92.768 48.856L91.8197 48.5387L91.3789 49.856H92.768V48.856ZM97.976 51.024H91.688V53.024H97.976V51.024ZM90.7409 51.7032L89.7329 54.6792L91.6271 55.3208L92.6351 52.3448L90.7409 51.7032ZM90.68 54H86.384V56H90.68V54ZM87.3243 55.3402L93.4203 38.4922L91.5397 37.8118L85.4437 54.6598L87.3243 55.3402ZM92.48 39.152H97.232V37.152H92.48V39.152ZM96.2917 38.4922L102.388 55.3402L104.268 54.6598L98.1723 37.8118L96.2917 38.4922ZM103.328 54H98.984V56H103.328V54ZM99.9311 54.6792L98.9231 51.7032L97.0289 52.3448L98.0369 55.3208L99.9311 54.6792ZM97.8672 48.5354L95.7792 42.3674L93.8848 43.0086L95.9728 49.1766L97.8672 48.5354ZM93.8837 42.3707L91.8197 48.5387L93.7163 49.1733L95.7803 43.0053L93.8837 42.3707ZM92.768 49.856H96.92V47.856H92.768V49.856ZM109.287 37.24H110.287V36.24H109.287V37.24ZM109.287 55V56H110.287V55H109.287ZM105.183 55H104.183V56H105.183V55ZM105.183 37.24V36.24H104.183V37.24H105.183ZM108.287 37.24V55H110.287V37.24H108.287ZM109.287 54H105.183V56H109.287V54ZM106.183 55V37.24H104.183V55H106.183ZM105.183 38.24H109.287V36.24H105.183V38.24ZM116.365 37.24H117.365V36.24H116.365V37.24ZM116.365 55V56H117.365V55H116.365ZM112.261 55H111.261V56H112.261V55ZM112.261 37.24V36.24H111.261V37.24H112.261ZM115.365 37.24V55H117.365V37.24H115.365ZM116.365 54H112.261V56H116.365V54ZM113.261 55V37.24H111.261V55H113.261ZM112.261 38.24H116.365V36.24H112.261V38.24ZM121.884 54.352L121.409 55.2325L121.415 55.2355L121.884 54.352ZM119.412 51.952L118.542 52.4467L118.548 52.4567L119.412 51.952ZM119.436 44.68L120.299 45.1847L120.302 45.179L119.436 44.68ZM121.932 42.256L122.4 43.1395L121.932 42.256ZM129.036 42.256L128.567 43.1395L129.036 42.256ZM131.532 44.68L130.665 45.179L130.668 45.1847L131.532 44.68ZM131.508 51.952L130.647 51.4433L130.644 51.4473L131.508 51.952ZM128.988 54.352L128.525 53.4656L128.519 53.4685L128.988 54.352ZM127.428 50.776L126.711 50.0789L126.706 50.0841L126.701 50.0894L127.428 50.776ZM127.452 45.832L126.714 46.5077L126.719 46.5132L126.725 46.5186L127.452 45.832ZM123.492 45.832L124.219 46.5181L124.229 46.5077L123.492 45.832ZM123.468 50.776L122.72 51.4404L122.725 51.4461L122.73 51.4517L123.468 50.776ZM125.436 54.192C124.271 54.192 123.25 53.9447 122.352 53.4685L121.415 55.2355C122.629 55.8793 123.976 56.192 125.436 56.192V54.192ZM122.358 53.4715C121.483 53.0005 120.792 52.332 120.275 51.4473L118.548 52.4567C119.247 53.652 120.204 54.5835 121.409 55.2325L122.358 53.4715ZM120.281 51.4573C119.788 50.5911 119.524 49.5511 119.524 48.304H117.524C117.524 49.8409 117.852 51.2329 118.542 52.4467L120.281 51.4573ZM119.524 48.304C119.524 47.0797 119.792 46.0508 120.299 45.1847L118.572 44.1753C117.863 45.3892 117.524 46.7763 117.524 48.304H119.524ZM120.302 45.179C120.818 44.2827 121.514 43.6095 122.4 43.1395L121.463 41.3725C120.237 42.0225 119.269 42.9653 118.569 44.181L120.302 45.179ZM122.4 43.1395C123.298 42.6633 124.319 42.416 125.484 42.416V40.416C124.024 40.416 122.677 40.7287 121.463 41.3725L122.4 43.1395ZM125.484 42.416C126.648 42.416 127.669 42.6633 128.567 43.1395L129.504 41.3725C128.29 40.7287 126.943 40.416 125.484 40.416V42.416ZM128.567 43.1395C129.453 43.6095 130.149 44.2827 130.665 45.179L132.398 44.181C131.698 42.9653 130.73 42.0225 129.504 41.3725L128.567 43.1395ZM130.668 45.1847C131.175 46.0508 131.444 47.0797 131.444 48.304H133.444C133.444 46.7763 133.104 45.3892 132.395 44.1753L130.668 45.1847ZM131.444 48.304C131.444 49.5233 131.169 50.5595 130.647 51.4433L132.368 52.4607C133.094 51.2325 133.444 49.8367 133.444 48.304H131.444ZM130.644 51.4473C130.132 52.3243 129.431 52.9923 128.525 53.4657L129.451 55.2383C130.689 54.5917 131.668 53.6597 132.371 52.4567L130.644 51.4473ZM128.519 53.4685C127.621 53.9447 126.6 54.192 125.436 54.192V56.192C126.895 56.192 128.242 55.8793 129.456 55.2355L128.519 53.4685ZM125.436 52.64C126.498 52.64 127.424 52.2362 128.155 51.4626L126.701 50.0894C126.343 50.4678 125.941 50.64 125.436 50.64V52.64ZM128.145 51.4731C128.94 50.6548 129.268 49.5468 129.268 48.304H127.268C127.268 49.2052 127.035 49.7452 126.711 50.0789L128.145 51.4731ZM129.268 48.304C129.268 47.0685 128.952 45.9645 128.179 45.1454L126.725 46.5186C127.039 46.8515 127.268 47.3955 127.268 48.304H129.268ZM128.189 45.1563C127.471 44.3729 126.547 43.968 125.484 43.968V45.968C125.988 45.968 126.377 46.1391 126.714 46.5077L128.189 45.1563ZM125.484 43.968C124.411 43.968 123.477 44.3681 122.754 45.1563L124.229 46.5077C124.562 46.1439 124.956 45.968 125.484 45.968V43.968ZM122.764 45.146C122 45.9564 121.7 47.0667 121.7 48.304H123.7C123.7 47.3653 123.927 46.8276 124.219 46.518L122.764 45.146ZM121.7 48.304C121.7 49.5252 121.991 50.6206 122.72 51.4404L124.215 50.1116C123.92 49.7794 123.7 49.2268 123.7 48.304H121.7ZM122.73 51.4517C123.449 52.2351 124.372 52.64 125.436 52.64V50.64C124.931 50.64 124.543 50.4689 124.205 50.1003L122.73 51.4517ZM146.069 42.28L145.948 43.2727L147.069 43.4085V42.28H146.069ZM143.285 42.016L143.369 41.0195L143.349 41.0178L143.328 41.0169L143.285 42.016ZM139.877 42.016H138.877V43.0805L139.939 43.0141L139.877 42.016ZM139.877 38.296V37.296H138.877V38.296H139.877ZM144.557 38.56L144.698 37.57L144.69 37.5688L144.681 37.5677L144.557 38.56ZM146.069 38.824H147.069V38.0042L146.265 37.8434L146.069 38.824ZM142.037 49.408L141.079 49.6953L141.083 49.7099L141.088 49.7242L142.037 49.408ZM141.797 49.096L141.301 49.9642L141.35 49.9926L141.403 50.0151L141.797 49.096ZM141.221 48.952L141.1 49.9447L141.104 49.9452L141.221 48.952ZM138.269 48.592L138.39 47.5993L138.378 47.598L138.269 48.592ZM134.741 46.888L135.582 46.3465L135.575 46.336L135.568 46.3257L134.741 46.888ZM134.189 45.424L135.175 45.2596V45.2596L134.189 45.424ZM135.413 39.472L136.065 40.2303L136.069 40.2266L135.413 39.472ZM138.869 38.344H139.869V37.27L138.798 37.3465L138.869 38.344ZM138.989 44.032L139.883 43.5848L139.866 43.5504L139.846 43.5175L138.989 44.032ZM139.229 44.248L138.835 45.1671L138.893 45.1921L138.954 45.2095L139.229 44.248ZM139.733 44.32L139.855 43.3275L139.83 43.3244L139.804 43.3225L139.733 44.32ZM143.045 44.728L143.183 43.7376L143.175 43.7365L143.167 43.7355L143.045 44.728ZM144.725 45.088L144.409 46.0367L144.725 45.088ZM145.829 45.76L146.551 45.0684L146.544 45.0606L146.536 45.0529L145.829 45.76ZM145.565 54.04L144.891 53.3006L144.888 53.3041L145.565 54.04ZM144.101 54.856L144.376 55.8175L144.384 55.815L144.393 55.8124L144.101 54.856ZM142.109 55.168H141.109V56.2325L142.171 56.1661L142.109 55.168ZM136.373 54.976L136.477 53.9814L136.47 53.9808L136.373 54.976ZM134.525 54.736H133.525V55.562L134.336 55.718L134.525 54.736ZM134.525 51.232L134.609 50.2356L133.525 50.1437V51.232H134.525ZM137.765 51.472L137.699 52.4698L137.711 52.4706L137.723 52.4711L137.765 51.472ZM141.101 51.448H142.101V50.2561L140.927 50.4632L141.101 51.448ZM141.101 55.192V56.192H142.101V55.192H141.101ZM146.189 41.2873C145.641 41.2208 144.696 41.1315 143.369 41.0195L143.201 43.0125C144.529 43.1245 145.441 43.2112 145.948 43.2727L146.189 41.2873ZM143.328 41.0169C142.586 40.9847 141.977 40.968 141.509 40.968V42.968C141.936 42.968 142.512 42.9833 143.241 43.0151L143.328 41.0169ZM141.509 40.968C140.914 40.968 140.35 40.9845 139.814 41.0179L139.939 43.0141C140.428 42.9835 140.951 42.968 141.509 42.968V40.968ZM140.877 42.016V38.296H138.877V42.016H140.877ZM139.877 39.296H140.477V37.296H139.877V39.296ZM140.477 39.296C141.744 39.296 143.063 39.381 144.433 39.5523L144.681 37.5677C143.235 37.387 141.833 37.296 140.477 37.296V39.296ZM144.415 39.5499C144.841 39.6108 145.326 39.6953 145.873 39.8046L146.265 37.8434C145.691 37.7287 145.169 37.6372 144.698 37.57L144.415 39.5499ZM145.069 38.824V42.28H147.069V38.824H145.069ZM143.109 50.128C143.109 49.7827 143.089 49.4013 142.985 49.0918L141.088 49.7242C141.079 49.6973 141.087 49.7115 141.096 49.7955C141.103 49.8724 141.109 49.9814 141.109 50.128H143.109ZM142.995 49.1207C142.895 48.7878 142.666 48.3805 142.191 48.1769L141.403 50.0151C141.29 49.9666 141.204 49.8925 141.148 49.8197C141.097 49.7529 141.081 49.7015 141.079 49.6953L142.995 49.1207ZM142.293 48.2278C141.993 48.0566 141.627 47.9929 141.338 47.9588L141.104 49.9452C141.212 49.9579 141.284 49.9716 141.326 49.9821C141.347 49.9872 141.354 49.9902 141.352 49.9893C141.351 49.9888 141.331 49.9816 141.301 49.9642L142.293 48.2278ZM141.342 47.9594L138.39 47.5994L138.148 49.5846L141.1 49.9446L141.342 47.9594ZM138.378 47.598C136.764 47.4203 135.952 46.9222 135.582 46.3465L133.9 47.4295C134.745 48.7418 136.285 49.3797 138.159 49.586L138.378 47.598ZM135.568 46.3257C135.392 46.0674 135.252 45.722 135.175 45.2596L133.202 45.5884C133.317 46.278 133.546 46.9086 133.914 47.4503L135.568 46.3257ZM135.175 45.2596C135.091 44.7554 135.045 44.11 135.045 43.312H133.045C133.045 44.178 133.094 44.9406 133.202 45.5884L135.175 45.2596ZM135.045 43.312C135.045 41.6859 135.462 40.7482 136.065 40.2303L134.761 38.7137C133.539 39.7637 133.045 41.3861 133.045 43.312H135.045ZM136.069 40.2266C136.568 39.7923 137.466 39.4467 138.94 39.3415L138.798 37.3465C137.136 37.4653 135.729 37.8717 134.757 38.7174L136.069 40.2266ZM137.869 38.344V43.168H139.869V38.344H137.869ZM137.869 43.168C137.869 43.3985 137.878 43.6138 137.899 43.8064L139.887 43.5856C139.876 43.4902 139.869 43.3535 139.869 43.168H137.869ZM137.899 43.8064C137.923 44.0224 137.98 44.2939 138.131 44.5465L139.846 43.5175C139.877 43.5684 139.888 43.605 139.89 43.6133C139.893 43.6221 139.89 43.6148 139.887 43.5856L137.899 43.8064ZM138.094 44.4792C138.262 44.8153 138.537 45.0394 138.835 45.1671L139.623 43.3289C139.654 43.3424 139.702 43.3684 139.754 43.4147C139.807 43.4622 139.851 43.5205 139.883 43.5848L138.094 44.4792ZM138.954 45.2095C139.168 45.2707 139.42 45.3002 139.662 45.3175L139.804 43.3225C139.709 43.3157 139.635 43.3079 139.58 43.3C139.523 43.2919 139.501 43.2858 139.504 43.2865L138.954 45.2095ZM139.611 45.3125L142.923 45.7205L143.167 43.7355L139.855 43.3275L139.611 45.3125ZM142.907 45.7184C143.562 45.8099 144.056 45.9192 144.409 46.0367L145.041 44.1393C144.529 43.9688 143.904 43.8381 143.183 43.7376L142.907 45.7184ZM144.409 46.0367C144.702 46.1346 144.934 46.2794 145.122 46.4671L146.536 45.0529C146.116 44.6326 145.611 44.3294 145.041 44.1393L144.409 46.0367ZM145.107 46.4516C145.548 46.9128 145.909 47.9105 145.909 49.768H147.909C147.909 47.7855 147.55 46.1112 146.551 45.0684L145.107 46.4516ZM145.909 49.768C145.909 51.7008 145.475 52.7694 144.891 53.3007L146.238 54.7793C147.447 53.6786 147.909 51.8992 147.909 49.768H145.909ZM144.888 53.3041C144.609 53.5602 144.257 53.7626 143.809 53.8996L144.393 55.8124C145.097 55.5974 145.72 55.2558 146.242 54.7759L144.888 53.3041ZM143.826 53.8945C143.353 54.0295 142.764 54.1251 142.046 54.1699L142.171 56.1661C142.99 56.1149 143.728 56.0025 144.376 55.8175L143.826 53.8945ZM143.109 55.168V50.128H141.109V55.168H143.109ZM140.837 54.192C139.266 54.192 137.813 54.1213 136.477 53.9814L136.269 55.9706C137.684 56.1187 139.207 56.192 140.837 56.192V54.192ZM136.47 53.9808C135.662 53.9016 135.083 53.8251 134.714 53.754L134.336 55.718C134.798 55.8069 135.451 55.8904 136.275 55.9712L136.47 53.9808ZM135.525 54.736V51.232H133.525V54.736H135.525ZM134.44 52.2284C135.392 52.3091 136.479 52.3895 137.699 52.4698L137.83 50.4742C136.619 50.3945 135.546 50.3149 134.609 50.2356L134.44 52.2284ZM137.723 52.4711C138.491 52.5031 139.054 52.52 139.397 52.52V50.52C139.1 50.52 138.574 50.5049 137.806 50.4729L137.723 52.4711ZM139.397 52.52C140.243 52.52 140.901 52.4987 141.275 52.4328L140.927 50.4632C140.757 50.4933 140.278 50.52 139.397 50.52V52.52ZM140.101 51.448V55.192H142.101V51.448H140.101ZM141.101 54.192H140.837V56.192H141.101V54.192ZM152.34 43.648V42.648H151.34V43.648H152.34ZM152.748 52.768L152.041 53.4751L152.052 53.4858L152.063 53.4962L152.748 52.768ZM155.772 53.152H156.772V52.152H155.772V53.152ZM155.772 55V56H156.772V55H155.772ZM150.156 43.648H151.156V42.648H150.156V43.648ZM148.452 43.648H147.452V44.648H148.452V43.648ZM148.452 41.848V40.848H147.452V41.848H148.452ZM150.156 41.848V42.848H151.156V41.848H150.156ZM150.156 38.536V37.536H149.156V38.536H150.156ZM152.34 38.536H153.34V37.536H152.34V38.536ZM152.34 41.848H151.34V42.848H152.34V41.848ZM155.772 41.848H156.772V40.848H155.772V41.848ZM155.772 43.648V44.648H156.772V43.648H155.772ZM151.34 43.648V51.4H153.34V43.648H151.34ZM151.34 51.4C151.34 52.1386 151.49 52.9238 152.041 53.4751L153.455 52.0609C153.461 52.067 153.432 52.0423 153.4 51.9362C153.368 51.8266 153.34 51.6543 153.34 51.4H151.34ZM152.063 53.4962C152.621 54.0216 153.422 54.152 154.164 54.152V52.152C153.886 52.152 153.693 52.1249 153.568 52.0909C153.443 52.057 153.419 52.0258 153.433 52.0398L152.063 53.4962ZM154.164 54.152H155.772V52.152H154.164V54.152ZM154.772 53.152V55H156.772V53.152H154.772ZM155.772 54H153.804V56H155.772V54ZM153.804 54C152.723 54 152.098 53.7493 151.746 53.4245L150.391 54.8955C151.254 55.6907 152.453 56 153.804 56V54ZM151.746 53.4245C151.433 53.1365 151.156 52.552 151.156 51.4H149.156C149.156 52.808 149.487 54.0635 150.391 54.8955L151.746 53.4245ZM151.156 51.4V43.648H149.156V51.4H151.156ZM150.156 42.648H148.452V44.648H150.156V42.648ZM149.452 43.648V41.848H147.452V43.648H149.452ZM148.452 42.848H150.156V40.848H148.452V42.848ZM151.156 41.848V38.536H149.156V41.848H151.156ZM150.156 39.536H152.34V37.536H150.156V39.536ZM151.34 38.536V41.848H153.34V38.536H151.34ZM152.34 42.848H155.772V40.848H152.34V42.848ZM154.772 41.848V43.648H156.772V41.848H154.772ZM155.772 42.648H152.34V44.648H155.772V42.648ZM160.794 54.376L160.303 55.2468L160.309 55.2502L160.794 54.376ZM158.442 52L157.562 52.4741L157.566 52.4822L157.571 52.4903L158.442 52ZM158.466 44.848L157.597 44.3533L157.595 44.3577L158.466 44.848ZM160.866 42.472L161.341 43.3521L161.352 43.3462L160.866 42.472ZM167.634 42.472L167.149 43.3462L167.159 43.352L167.634 42.472ZM170.01 44.824L169.139 45.3143L169.145 45.3245L170.01 44.824ZM169.986 52L169.123 51.4953L169.121 51.4995L169.986 52ZM167.562 54.376L168.042 55.2534H168.042L167.562 54.376ZM168.018 51.088L167.156 50.5818L167.152 50.5888L167.148 50.5959L168.018 51.088ZM166.41 44.08L165.93 44.9571L165.938 44.9615L165.946 44.9658L166.41 44.08ZM162.018 44.08L162.491 44.9612L162.499 44.9571L162.018 44.08ZM160.434 45.712L161.313 46.1895L160.434 45.712ZM160.41 51.112L159.524 51.5746L159.528 51.5821L159.532 51.5895L160.41 51.112ZM161.994 52.768L161.505 53.6401L161.513 53.6447L161.521 53.6492L161.994 52.768ZM164.154 54.216C163.08 54.216 162.129 53.9737 161.28 53.5018L160.309 55.2502C161.475 55.8983 162.764 56.216 164.154 56.216V54.216ZM161.286 53.5052C160.458 53.0379 159.803 52.3798 159.314 51.5097L157.571 52.4903C158.233 53.6682 159.147 54.5941 160.303 55.2468L161.286 53.5052ZM159.323 51.5259C158.852 50.6523 158.602 49.6198 158.602 48.4H156.602C156.602 49.9002 156.912 51.2677 157.562 52.4741L159.323 51.5259ZM158.602 48.4C158.602 47.2027 158.858 46.1922 159.338 45.3383L157.595 44.3577C156.923 45.5518 156.602 46.9093 156.602 48.4H158.602ZM159.335 45.3427C159.839 44.4579 160.506 43.8029 161.341 43.352L160.391 41.592C159.211 42.229 158.278 43.1581 157.597 44.3533L159.335 45.3427ZM161.352 43.3462C162.199 42.8754 163.158 42.632 164.25 42.632V40.632C162.847 40.632 161.549 40.9486 160.381 41.5978L161.352 43.3462ZM164.25 42.632C165.343 42.632 166.301 42.8754 167.149 43.3462L168.12 41.5978C166.951 40.9486 165.654 40.632 164.25 40.632V42.632ZM167.159 43.352C167.997 43.8038 168.653 44.4506 169.139 45.3143L170.882 44.3337C170.216 43.1494 169.288 42.2282 168.109 41.592L167.159 43.352ZM169.145 45.3245C169.636 46.1748 169.898 47.189 169.898 48.4H171.898C171.898 46.891 171.568 45.5212 170.876 44.3235L169.145 45.3245ZM169.898 48.4C169.898 49.606 169.63 50.6274 169.123 51.4953L170.85 52.5047C171.558 51.2926 171.898 49.914 171.898 48.4H169.898ZM169.121 51.4995C168.619 52.3671 167.944 53.0278 167.083 53.4986L168.042 55.2534C169.229 54.6042 170.17 53.6809 170.852 52.5005L169.121 51.4995ZM167.083 53.4986C166.216 53.9726 165.247 54.216 164.154 54.216V56.216C165.558 56.216 166.861 55.8994 168.042 55.2534L167.083 53.4986ZM164.154 54.296C165.102 54.296 166 54.0718 166.834 53.6258L165.891 51.8622C165.348 52.1522 164.775 52.296 164.154 52.296V54.296ZM166.834 53.6258C167.703 53.1609 168.388 52.4668 168.889 51.5801L167.148 50.5959C166.817 51.1812 166.397 51.5911 165.891 51.8622L166.834 53.6258ZM168.881 51.5942C169.422 50.6722 169.666 49.592 169.666 48.4H167.666C167.666 49.32 167.479 50.0318 167.156 50.5818L168.881 51.5942ZM169.666 48.4C169.666 47.2139 169.432 46.1391 168.913 45.2199L167.172 46.2041C167.484 46.7569 167.666 47.4741 167.666 48.4H169.666ZM168.913 45.2199C168.413 44.3361 167.736 43.6456 166.874 43.1942L165.946 44.9658C166.429 45.2184 166.839 45.6159 167.172 46.2041L168.913 45.2199ZM166.891 43.2029C166.068 42.7523 165.174 42.528 164.226 42.528V44.528C164.847 44.528 165.409 44.6717 165.93 44.9571L166.891 43.2029ZM164.226 42.528C163.266 42.528 162.364 42.7507 161.538 43.2029L162.499 44.9571C163.017 44.6733 163.587 44.528 164.226 44.528V42.528ZM161.545 43.1988C160.697 43.6542 160.037 44.3494 159.556 45.2345L161.313 46.1895C161.632 45.6026 162.028 45.2098 162.491 44.9612L161.545 43.1988ZM159.556 45.2345C159.058 46.1504 158.834 47.2198 158.834 48.4H160.834C160.834 47.4682 161.011 46.7456 161.313 46.1895L159.556 45.2345ZM158.834 48.4C158.834 49.5876 159.047 50.6602 159.524 51.5746L161.297 50.6494C161.006 50.0918 160.834 49.3564 160.834 48.4H158.834ZM159.532 51.5895C160.011 52.4717 160.666 53.1697 161.505 53.6401L162.484 51.8959C162.01 51.6303 161.609 51.2243 161.289 50.6345L159.532 51.5895ZM161.521 53.6492C162.331 54.0833 163.214 54.296 164.154 54.296V52.296C163.526 52.296 162.97 52.1567 162.467 51.8868L161.521 53.6492ZM175.954 43.984H174.954L176.844 44.4388L175.954 43.984ZM177.586 42.232L177.086 41.3661L177.077 41.3711L177.586 42.232ZM180.202 41.608H181.202V40.608H180.202V41.608ZM180.202 43.864V44.864H181.202V43.864H180.202ZM175.954 55V56H176.954V55H175.954ZM173.77 55H172.77V56H173.77V55ZM173.77 41.848V40.848H172.77V41.848H173.77ZM175.954 41.848H176.954V40.848H175.954V41.848ZM176.844 44.4388C177.145 43.8498 177.559 43.4092 178.095 43.0929L177.077 41.3711C176.204 41.8868 175.531 42.6142 175.063 43.5292L176.844 44.4388ZM178.086 43.0979C178.623 42.7879 179.313 42.608 180.202 42.608V40.608C179.043 40.608 177.989 40.8441 177.086 41.3661L178.086 43.0979ZM179.202 41.608V43.864H181.202V41.608H179.202ZM180.202 42.864H179.626V44.864H180.202V42.864ZM179.626 42.864C178.226 42.864 176.998 43.2475 176.137 44.1823C175.289 45.1016 174.954 46.3852 174.954 47.848H176.954C176.954 46.6548 177.231 45.9464 177.607 45.5377C177.97 45.1445 178.578 44.864 179.626 44.864V42.864ZM174.954 47.848V55H176.954V47.848H174.954ZM175.954 54H173.77V56H175.954V54ZM174.77 55V41.848H172.77V55H174.77ZM173.77 42.848H175.954V40.848H173.77V42.848ZM174.954 41.848V43.984H176.954V41.848H174.954ZM194.651 49.24V50.24H195.553L195.646 49.3429L194.651 49.24ZM184.139 49.24V48.24H183.075L183.141 49.3016L184.139 49.24ZM185.459 52.288L184.782 53.0239L184.79 53.031L184.797 53.0378L185.459 52.288ZM190.763 52.72L191.332 53.5422L191.336 53.5392L190.763 52.72ZM192.107 50.944V49.944H191.396L191.163 50.6155L192.107 50.944ZM194.459 50.944L195.422 51.2123L195.776 49.944H194.459V50.944ZM192.347 54.04L192.943 54.8429L192.951 54.8371L192.347 54.04ZM185.051 54.376L184.553 55.2434L184.559 55.2468L185.051 54.376ZM182.747 52L181.867 52.4741L181.87 52.4798L182.747 52ZM182.723 44.824L183.606 45.2932L182.723 44.824ZM185.003 42.472L185.49 43.3455L185.495 43.3428L185.003 42.472ZM191.723 42.448L191.23 43.318V43.318L191.723 42.448ZM193.931 44.704L193.049 45.1746L193.053 45.1834L193.058 45.1922L193.931 44.704ZM192.467 47.464V48.464H193.467V47.464H192.467ZM191.915 45.328L191.059 45.8458L191.066 45.8559L191.915 45.328ZM190.403 43.96L189.947 44.8498L189.96 44.8568L189.974 44.8633L190.403 43.96ZM185.483 44.536L184.815 43.7919L184.807 43.7988L185.483 44.536ZM184.163 47.464L183.167 47.3746L183.069 48.464H184.163V47.464ZM193.723 47.92C193.723 48.2978 193.701 48.7033 193.656 49.1371L195.646 49.3429C195.697 48.8487 195.723 48.3742 195.723 47.92H193.723ZM194.651 48.24H184.139V50.24H194.651V48.24ZM183.141 49.3016C183.234 50.802 183.756 52.0799 184.782 53.0239L186.136 51.5521C185.562 51.0241 185.204 50.27 185.137 49.1784L183.141 49.3016ZM184.797 53.0378C185.807 53.929 187.031 54.368 188.411 54.368V52.368C187.487 52.368 186.743 52.087 186.121 51.5382L184.797 53.0378ZM188.411 54.368C189.508 54.368 190.504 54.1155 191.332 53.5422L190.194 51.8978C189.774 52.1885 189.202 52.368 188.411 52.368V54.368ZM191.336 53.5392C192.148 52.971 192.726 52.2076 193.051 51.2725L191.163 50.6155C190.976 51.1524 190.658 51.573 190.19 51.9008L191.336 53.5392ZM192.107 51.944H194.459V49.944H192.107V51.944ZM193.496 50.6757C193.203 51.7267 192.626 52.5737 191.743 53.2429L192.951 54.8371C194.18 53.9063 195.011 52.6893 195.422 51.2123L193.496 50.6757ZM191.751 53.2371C190.899 53.8699 189.807 54.216 188.411 54.216V56.216C190.151 56.216 191.683 55.7781 192.943 54.8429L191.751 53.2371ZM188.411 54.216C187.318 54.216 186.371 53.9726 185.543 53.5052L184.559 55.2468C185.715 55.8994 187.008 56.216 188.411 56.216V54.216ZM185.549 53.5086C184.739 53.0439 184.099 52.3888 183.624 51.5202L181.87 52.4798C182.515 53.6592 183.411 54.5881 184.553 55.2434L185.549 53.5086ZM183.627 51.5259C183.157 50.6523 182.907 49.6198 182.907 48.4H180.907C180.907 49.9002 181.217 51.2677 181.867 52.4741L183.627 51.5259ZM182.907 48.4C182.907 47.1753 183.151 46.1496 183.606 45.2932L181.84 44.3548C181.207 45.5464 180.907 46.9047 180.907 48.4H182.907ZM183.606 45.2932C184.063 44.4325 184.689 43.792 185.49 43.3455L184.516 41.5985C183.365 42.24 182.471 43.1675 181.84 44.3548L183.606 45.2932ZM185.495 43.3428C186.319 42.8776 187.282 42.632 188.411 42.632V40.632C186.98 40.632 185.671 40.9464 184.511 41.6012L185.495 43.3428ZM188.411 42.632C189.509 42.632 190.439 42.8699 191.23 43.318L192.216 41.578C191.087 40.9381 189.809 40.632 188.411 40.632V42.632ZM191.23 43.318C192.027 43.7699 192.627 44.3845 193.049 45.1746L194.813 44.2334C194.211 43.1035 193.339 42.2141 192.216 41.578L191.23 43.318ZM193.058 45.1922C193.494 45.9711 193.723 46.8718 193.723 47.92H195.723C195.723 46.5682 195.424 45.3249 194.804 44.2158L193.058 45.1922ZM193.467 47.464C193.467 46.4819 193.248 45.5789 192.764 44.8001L191.066 45.8559C191.318 46.2611 191.467 46.7821 191.467 47.464H193.467ZM192.771 44.8102C192.301 44.0353 191.649 43.445 190.832 43.0567L189.974 44.8633C190.437 45.083 190.793 45.4047 191.06 45.8458L192.771 44.8102ZM190.859 43.0702C190.081 42.6711 189.226 42.48 188.315 42.48V44.48C188.94 44.48 189.477 44.6089 189.947 44.8498L190.859 43.0702ZM188.315 42.48C186.977 42.48 185.792 42.9147 184.815 43.792L186.151 45.28C186.742 44.7493 187.445 44.48 188.315 44.48V42.48ZM184.807 43.7988C183.82 44.7041 183.297 45.9314 183.167 47.3746L185.159 47.5534C185.253 46.5006 185.61 45.7759 186.159 45.2732L184.807 43.7988ZM184.163 48.464H192.467V46.464H184.163V48.464Z" fill="white" mask="url(#path-3-outside-1_6_2)"/>
</g>
</g>
<defs>
<filter id="filter0_d_6_2" x="82.384" y="37.24" width="116.339" height="25.976" filterUnits="userSpaceOnUse" color-interpolation-filters="sRGB">
<feFlood flood-opacity="0" result="BackgroundImageFix"/>
<feColorMatrix in="SourceAlpha" type="matrix" values="0 0 0 0 0 0 0 0 0 0 0 0 0 0 0 0 0 0 127 0" result="hardAlpha"/>
<feOffset dy="4"/>
<feGaussianBlur stdDeviation="2"/>
<feComposite in2="hardAlpha" operator="out"/>
<feColorMatrix type="matrix" values="0 0 0 0 0 0 0 0 0 0 0 0 0 0 0 0 0 0 0.25 0"/>
<feBlend mode="normal" in2="BackgroundImageFix" result="effect1_dropShadow_6_2"/>
<feBlend mode="normal" in="SourceGraphic" in2="effect1_dropShadow_6_2" result="shape"/>
</filter>
<clipPath id="clip0_6_2">
<rect width="83" height="82" fill="white"/>
</clipPath>
</defs>
</svg>
